<svg width="100" height="100" xmlns="http://www.w3.org/2000/svg">
  <!-- Background grid -->
  <defs>
    <pattern id="grid" width="10" height="10" patternUnits="userSpaceOnUse">
      <path d="M 10 0 L 0 0 0 10" fill="none" stroke="rgba(255,255,255,0.1)" stroke-width="0.5"/>
    </pattern>
  </defs>
  <rect width="100" height="100" fill="url(#grid)" />
  
  <!-- Data points and connections -->
  <circle cx="20" cy="40" r="2" fill="white" opacity="0.6" />
  <circle cx="35" cy="15" r="1.5" fill="white" opacity="0.4" />
  <circle cx="45" cy="60" r="2" fill="white" opacity="0.7" />
  <circle cx="70" cy="25" r="1.5" fill="white" opacity="0.5" />
  <circle cx="85" cy="75" r="2" fill="white" opacity="0.6" />
  <circle cx="60" cy="80" r="1.5" fill="white" opacity="0.4" />
  <circle cx="10" cy="70" r="1" fill="white" opacity="0.3" />
  <circle cx="90" cy="35" r="1" fill="white" opacity="0.3" />
  
  <!-- Connection lines -->
  <line x1="20" y1="40" x2="45" y2="60" stroke="white" stroke-width="0.5" opacity="0.3" />
  <line x1="45" y1="60" x2="85" y2="75" stroke="white" stroke-width="0.5" opacity="0.3" />
  <line x1="35" y1="15" x2="70" y2="25" stroke="white" stroke-width="0.5" opacity="0.3" />
  <line x1="70" y1="25" x2="90" y2="35" stroke="white" stroke-width="0.5" opacity="0.3" />
  <line x1="45" y1="60" x2="60" y2="80" stroke="white" stroke-width="0.5" opacity="0.3" />
  <line x1="10" y1="70" x2="60" y2="80" stroke="white" stroke-width="0.5" opacity="0.3" />
  
  <!-- Data nodes -->
  <rect x="30" y="30" width="4" height="4" fill="white" opacity="0.4" transform="rotate(45, 32, 32)" />
  <rect x="50" y="40" width="4" height="4" fill="white" opacity="0.4" transform="rotate(45, 52, 42)" />
  <rect x="75" y="50" width="4" height="4" fill="white" opacity="0.4" transform="rotate(45, 77, 52)" />
  <!-- Grid lines -->
  <line x1="0" y1="10" x2="100" y2="10" stroke="white" stroke-width="0.3"/>
  <line x1="0" y1="25" x2="100" y2="25" stroke="white" stroke-width="0.2"/>
  <line x1="0" y1="40" x2="100" y2="40" stroke="white" stroke-width="0.3"/>
  <line x1="0" y1="55" x2="100" y2="55" stroke="white" stroke-width="0.2"/>
  <line x1="0" y1="70" x2="100" y2="70" stroke="white" stroke-width="0.3"/>
  <line x1="0" y1="85" x2="100" y2="85" stroke="white" stroke-width="0.2"/>
  
  <line x1="10" y1="0" x2="10" y2="100" stroke="white" stroke-width="0.3"/>
  <line x1="25" y1="0" x2="25" y2="100" stroke="white" stroke-width="0.2"/>
  <line x1="40" y1="0" x2="40" y2="100" stroke="white" stroke-width="0.3"/>
  <line x1="55" y1="0" x2="55" y2="100" stroke="white" stroke-width="0.2"/>
  <line x1="70" y1="0" x2="70" y2="100" stroke="white" stroke-width="0.3"/>
  <line x1="85" y1="0" x2="85" y2="100" stroke="white" stroke-width="0.2"/>
  
  <!-- Data points -->
  <circle cx="10" cy="10" r="1" fill="white"/>
  <circle cx="40" cy="10" r="1" fill="white"/>
  <circle cx="70" cy="10" r="1" fill="white"/>
  
  <circle cx="25" cy="25" r="1" fill="white"/>
  <circle cx="55" cy="25" r="1" fill="white"/>
  <circle cx="85" cy="25" r="1" fill="white"/>
  
  <circle cx="10" cy="40" r="1" fill="white"/>
  <circle cx="40" cy="40" r="1.5" fill="white"/>
  <circle cx="70" cy="40" r="1" fill="white"/>
  
  <circle cx="25" cy="55" r="1" fill="white"/>
  <circle cx="55" cy="55" r="1.5" fill="white"/>
  <circle cx="85" cy="55" r="1" fill="white"/>
  
  <circle cx="10" cy="70" r="1" fill="white"/>
  <circle cx="40" cy="70" r="1" fill="white"/>
  <circle cx="70" cy="70" r="1.5" fill="white"/>
  
  <circle cx="25" cy="85" r="1" fill="white"/>
  <circle cx="55" cy="85" r="1" fill="white"/>
  <circle cx="85" cy="85" r="1" fill="white"/>
  
  <!-- Data nodes -->
  <circle cx="40" cy="40" r="3" fill="none" stroke="white" stroke-width="0.5"/>
  <circle cx="55" cy="55" r="3" fill="none" stroke="white" stroke-width="0.5"/>
  <circle cx="70" cy="70" r="3" fill="none" stroke="white" stroke-width="0.5"/>
  
  <!-- Data connections -->
  <line x1="40" y1="40" x2="55" y2="55" stroke="white" stroke-width="0.5" stroke-dasharray="2,2"/>
  <line x1="55" y1="55" x2="70" y2="70" stroke="white" stroke-width="0.5" stroke-dasharray="2,2"/>
  <line x1="40" y1="40" x2="70" y2="70" stroke="white" stroke-width="0.3" stroke-dasharray="1,3"/>
</svg> 